<svg width="60" height="60" viewBox="0 0 60 60" fill="none" xmlns="http://www.w3.org/2000/svg">
<path fill-rule="evenodd" clip-rule="evenodd" d="M12.0446 47.3955C13.123 46.8395 14.4146 46.2422 15.9091 45.6818C18.3803 44.7551 20.6375 43.9832 22.2511 43.4313C22.7899 43.247 23.257 43.0873 23.6363 42.9545V38.4091C23.2575 38.1061 22.2272 37.0909 21.1363 35.4545C20.0454 33.8182 19.9242 31.7424 20 30.9091C19.5454 30.6818 18.5909 29.7273 18.4091 27.7273C18.2272 25.7273 19.3182 24.3182 19.7727 24.0909C19.3939 23.0303 19.0909 22.0455 18.8636 20.9091C18.6363 19.7727 19.0909 17.8409 19.7727 16.8182C20.4545 15.7955 22.1969 15 22.9545 15C23.4091 14.2424 24.8208 12.8168 26.3636 12.0455C28.6363 10.9091 31.3636 10.6818 34.7727 11.3636C38.1818 12.0455 40.1152 13.4123 40.9091 15C42.0454 17.2727 41.0606 21.8182 40.4545 24.5455C40.9848 25 42 26.2727 41.8182 27.7273C41.6363 29.1818 40.5303 30.4545 40 30.9091C40.1515 31.7424 39.6212 34.3182 38.8636 35.4545C37.7727 37.0909 36.8182 38.1061 36.3636 38.4091V42.9545C36.6626 43.0455 36.9795 43.1374 37.3176 43.2355C38.95 43.7089 41.0785 44.3263 44.0909 45.6818C45.661 46.3884 46.878 46.9791 47.87 47.4833C52.2809 42.9754 55 36.8052 55 30C55 16.1929 43.8071 5 30 5C16.1929 5 5 16.1929 5 30C5 36.7612 7.68397 42.8954 12.0446 47.3955ZM60 30C60 46.5685 46.5685 60 30 60C13.4315 60 0 46.5685 0 30C0 13.4315 13.4315 0 30 0C46.5685 0 60 13.4315 60 30Z" fill="white"/>
</svg>
